<svg width="429" height="100.25" viewBox="0 0 369.529 86.353" class="looka-1j8o68f"><path xmlns="http://www.w3.org/2000/svg" fill-rule="evenodd" clip-rule="evenodd" d="M43.245 0q1.745.002 3.453.137L1.516 54.548C-5.864 27.293 14.613 0 43.245 0m23.292 6.806L3.16 59.433q.557 1.378 1.204 2.705l72.289-46.342a43.5 43.5 0 0 0-10.116-8.988m18.915 27.054L6.439 65.905q.796 1.288 1.677 2.516l78.152-20.99a43.5 43.5 0 0 0-.816-13.571M79.12 67.352c-15.512 23.02-48.77 25.547-67.582 5.252z" fill="#a7cced"/><path d="M110.267 52.51q0 2.702 2.169 4.409t5.368 1.706q5.76 0 8.57-3.022t2.808-8.213v-2.275h-5.12q-6.542 0-10.169 1.99t-3.626 5.405m9.67-24.604q6.614 0 9.814 3.058t3.27 8.533v9.742q0 7.964.64 12.373h-3.981q-.427-2.205-.427-5.333h-.142q-3.556 6.186-11.449 6.186-5.333 0-8.462-2.63t-3.2-7.112q0-5.475 4.73-8.248t13.19-2.774h5.262v-1.92q0-4.053-2.489-6.044t-6.755-1.99q-5.689 0-10.027 3.697l-2.488-2.916q2.346-2.275 5.795-3.448t6.72-1.174m40.105 0q3.627 0 6.222 1.85t3.662 5.261q1.422-3.413 4.48-5.262t6.755-1.849q12.444 0 12.444 13.938v19.768h-4.266V42.057q0-10.24-8.249-10.31-4.977 0-7.466 3.27t-2.489 8.462v18.133h-4.266V41.63q0-4.48-1.707-7.146t-5.191-2.738q-5.12 0-8.178 3.591t-3.128 9.99v16.285h-4.267V37.648q-.07-2.418-.355-8.888h4.266q.142 5.262.285 5.76h.213q1.422-3.058 4.55-4.836t6.685-1.778m47.856 17.28q0 5.617 3.982 9.457t9.742 3.982q5.76 0 9.351-3.804t3.662-9.635q0-5.689-3.555-9.529t-9.529-3.91q-5.76 0-9.67 3.91t-3.983 9.529m13.724-17.28q7.538 0 12.373 4.871t4.907 12.409q0 7.537-4.836 12.373t-12.444 4.906q-4.195 0-7.786-1.778t-5.369-4.835h-.142v21.973h-4.267V28.76h4.267v5.76h.142q1.707-2.987 5.333-4.8t7.822-1.814m27.52-20.052h4.266v53.758h-4.267zm17.066 20.906h4.266v32.852h-4.266zm2.133-16.213q1.422 0 2.31.924t.89 2.276-.89 2.275-2.31.925q-1.351 0-2.276-.925t-.924-2.275.924-2.276 2.276-.924M294.794 7q2.987 0 4.907.854l-.854 3.697q-1.422-.71-3.84-.71-5.76 0-5.76 8.461v9.458h7.68v3.84h-7.68v29.012h-4.266V32.599h-6.826v-3.84h6.826V17.739q0-4.836 2.702-7.751T294.794 7m8.96 21.76 10.88 27.66 10.595-27.66h4.55l-16.852 42.878q-2.773 7.04-9.102 7.04-1.99 0-4.195-.64l.426-3.982q2.347.782 3.84.782 1.636 0 2.916-1.138t2.488-4.124l3.058-7.822L298.99 28.76zm35.199 16.426q0 5.902 3.698 9.67t9.315 3.77q5.546 0 9.564-3.805t4.16-9.635q0-5.547-3.947-9.458t-9.848-3.982q-5.547 0-9.209 3.769t-3.733 9.67m26.31-37.331h4.267v53.758h-4.267v-5.76h-.142q-1.778 3.129-5.44 4.87t-7.715 1.743q-7.324 0-12.231-4.8t-5.049-12.48q0-7.324 4.8-12.23t12.48-5.049q4.195 0 7.75 1.742t5.405 4.871h.142z" fill="#304d6d"/></svg>