<svg width="305.331" height="304.916" viewBox="0 0 131.25 131.071" class="looka-1j8o68f">
  <path xmlns="http://www.w3.org/2000/svg" fill-rule="evenodd" clip-rule="evenodd" d="M65.639 0q2.649.003 5.242.208L2.3 82.797C-8.903 41.427 22.18 0 65.638 0m35.354 10.331L4.796 90.211q.846 2.092 1.828 4.106l109.724-70.34a66 66 0 0 0-15.355-13.644m28.71 41.065L9.773 100.035q1.208 1.954 2.546 3.818l118.623-31.86a66 66 0 0 0-1.239-20.598m-9.611 50.835c-23.544 34.942-74.024 38.778-102.58 7.973z" fill="#a7cced"/>
  <g transform="translate(151 66)" fill="#304d6d"/>
</svg>
